<svg xmlns="http://www.w3.org/2000/svg" viewBox="0 0 64 64" width="64" height="64">
  <defs>
    <linearGradient id="bg" x1="0%" y1="0%" x2="100%" y2="100%">
      <stop offset="0%" stop-color="#1B2A4A"/>
      <stop offset="100%" stop-color="#2a3f6f"/>
    </linearGradient>
    <linearGradient id="gold" x1="0%" y1="0%" x2="100%" y2="100%">
      <stop offset="0%" stop-color="#C9A84C"/>
      <stop offset="100%" stop-color="#F7D98B"/>
    </linearGradient>
  </defs>
  <rect width="64" height="64" rx="14" fill="url(#bg)"/>
  <!-- Book body -->
  <rect x="10" y="18" width="24" height="30" rx="3" fill="white" opacity="0.15"/>
  <rect x="12" y="18" width="20" height="30" rx="2" fill="white" opacity="0.2"/>
  <!-- Book pages lines -->
  <line x1="16" y1="26" x2="28" y2="26" stroke="white" stroke-width="1.5" stroke-linecap="round" opacity="0.5"/>
  <line x1="16" y1="30" x2="28" y2="30" stroke="white" stroke-width="1.5" stroke-linecap="round" opacity="0.5"/>
  <line x1="16" y1="34" x2="24" y2="34" stroke="white" stroke-width="1.5" stroke-linecap="round" opacity="0.5"/>
  <!-- Book spine -->
  <rect x="10" y="18" width="4" height="30" rx="2" fill="url(#gold)"/>
  <!-- Star -->
  <polygon points="46,12 48.2,18.6 55,18.6 49.4,22.7 51.6,29.3 46,25.2 40.4,29.3 42.6,22.7 37,18.6 43.8,18.6" fill="url(#gold)"/>
</svg>
